<?xml version="1.0" encoding="utf-8"?>
<!-- Generator: Adobe Illustrator 16.0.0, SVG Export Plug-In . SVG Version: 6.00 Build 0)  -->
<!DOCTYPE svg PUBLIC "-//W3C//DTD SVG 1.1//EN" "http://www.w3.org/Graphics/SVG/1.1/DTD/svg11.dtd">
<svg version="1.1" id="Layer_1" xmlns="http://www.w3.org/2000/svg" xmlns:xlink="http://www.w3.org/1999/xlink" x="0px" y="0px"
	 width="300px" height="300px" viewBox="0 0 300 300" enable-background="new 0 0 300 300" xml:space="preserve">
<g>
	<g>
		<linearGradient id="SVGID_1_" gradientUnits="userSpaceOnUse" x1="87.0562" y1="25.5103" x2="134.227" y2="128.0882">
			<stop  offset="0" style="stop-color:#FFBB00"/>
			<stop  offset="1" style="stop-color:#F08F1E"/>
		</linearGradient>
		<path fill="url(#SVGID_1_)" d="M153.33,14.526c-48.169,0-90.224,26.17-112.729,65.066l112.729,65.085V14.526z"/>
		<linearGradient id="SVGID_2_" gradientUnits="userSpaceOnUse" x1="122.499" y1="83.4414" x2="168.7741" y2="76.6053">
			<stop  offset="3.018500e-004" style="stop-color:#FFFFFF;stop-opacity:0"/>
			<stop  offset="0.9997" style="stop-color:#000000"/>
		</linearGradient>
		<path opacity="0.7" fill="url(#SVGID_2_)" d="M153.33,14.526c-48.169,0-90.224,26.17-112.729,65.066l112.729,65.085V14.526z"/>
	</g>
	<g>
		<linearGradient id="SVGID_3_" gradientUnits="userSpaceOnUse" x1="85.1294" y1="258.0234" x2="134.1504" y2="194.047">
			<stop  offset="0" style="stop-color:#EFEFEF"/>
			<stop  offset="0.999" style="stop-color:#BCBCBE"/>
		</linearGradient>
		<path fill="url(#SVGID_3_)" d="M39.285,210.522c22.769,39.35,65.314,65.826,114.045,65.826V144.677L39.285,210.522z"/>
		<linearGradient id="SVGID_4_" gradientUnits="userSpaceOnUse" x1="112.0444" y1="208.2881" x2="91.0102" y2="167.2714">
			<stop  offset="3.018500e-004" style="stop-color:#FFFFFF;stop-opacity:0"/>
			<stop  offset="0.9997" style="stop-color:#000000"/>
		</linearGradient>
		<path opacity="0.8" fill="url(#SVGID_4_)" d="M39.285,210.522c22.769,39.35,65.314,65.826,114.045,65.826V144.677L39.285,210.522z
			"/>
	</g>
	<g>
		<linearGradient id="SVGID_5_" gradientUnits="userSpaceOnUse" x1="222.2637" y1="24.8892" x2="169.1025" y2="118.8572">
			<stop  offset="0" style="stop-color:#01C8BB"/>
			<stop  offset="0.9993" style="stop-color:#01857F"/>
		</linearGradient>
		<path fill="url(#SVGID_5_)" d="M268.602,78.125c-23.013-39.773-66.015-66.533-115.271-66.533v133.085L268.602,78.125z"/>
		<linearGradient id="SVGID_6_" gradientUnits="userSpaceOnUse" x1="194.2666" y1="74.5767" x2="213.8807" y2="117.8284">
			<stop  offset="3.018500e-004" style="stop-color:#FFFFFF;stop-opacity:0"/>
			<stop  offset="0.9997" style="stop-color:#000000"/>
		</linearGradient>
		<path opacity="0.8" fill="url(#SVGID_6_)" d="M268.602,78.125c-23.013-39.773-66.015-66.533-115.271-66.533v133.085
			L268.602,78.125z"/>
		<linearGradient id="SVGID_7_" gradientUnits="userSpaceOnUse" x1="152.0381" y1="14.7715" x2="153.4145" y2="12.4709">
			<stop  offset="0" style="stop-color:#01C8BB"/>
			<stop  offset="0.9993" style="stop-color:#01857F"/>
		</linearGradient>
		<polygon fill="url(#SVGID_7_)" points="153.33,11.592 151.028,14.545 153.33,14.526 		"/>
	</g>
	<g>
		<linearGradient id="SVGID_8_" gradientUnits="userSpaceOnUse" x1="90.248" y1="100.9814" x2="58.9288" y2="196.9322">
			<stop  offset="0" style="stop-color:#49494B"/>
			<stop  offset="0.9997" style="stop-color:#252527"/>
		</linearGradient>
		<path fill="url(#SVGID_8_)" d="M25.992,71.158c-12.514,21.627-19.68,46.735-19.68,73.52c0,26.783,7.166,51.892,19.68,73.519
			l127.338-73.519L25.992,71.158z"/>
		<linearGradient id="SVGID_9_" gradientUnits="userSpaceOnUse" x1="6.8896" y1="144.6763" x2="111.7766" y2="144.6763">
			<stop  offset="0" style="stop-color:#49494B"/>
			<stop  offset="0.9997" style="stop-color:#252527"/>
		</linearGradient>
		<path fill="url(#SVGID_9_)" d="M26.298,217.056c-12.532-21.949-19.152-46.959-19.152-72.378c0-25.421,6.62-50.429,19.152-72.38
			l125.366,72.38L26.298,217.056z"/>
		<linearGradient id="SVGID_10_" gradientUnits="userSpaceOnUse" x1="46.623" y1="71.9551" x2="32.3798" y2="75.6104">
			<stop  offset="0" style="stop-color:#49494B"/>
			<stop  offset="0.9997" style="stop-color:#252527"/>
		</linearGradient>
		<polygon fill="url(#SVGID_10_)" points="25.992,71.158 46.887,69.776 40.601,79.592 		"/>
		<linearGradient id="SVGID_11_" gradientUnits="userSpaceOnUse" x1="45.0396" y1="215.9795" x2="28.1456" y2="214.1365">
			<stop  offset="0" style="stop-color:#49494B"/>
			<stop  offset="0.9997" style="stop-color:#252527"/>
		</linearGradient>
		<polygon fill="url(#SVGID_11_)" points="25.992,218.196 45.966,220.911 39.285,210.522 		"/>
	</g>
	<g>
		<linearGradient id="SVGID_12_" gradientUnits="userSpaceOnUse" x1="295.4824" y1="147.6982" x2="187.2882" y2="133.0977">
			<stop  offset="0" style="stop-color:#8CAAB6"/>
			<stop  offset="0.9997" style="stop-color:#51646B"/>
		</linearGradient>
		<path fill="url(#SVGID_12_)" d="M273.096,75.531L153.33,144.677l119.766,69.146c11.769-20.342,18.508-43.957,18.508-69.146
			C291.604,119.487,284.864,95.872,273.096,75.531z"/>
		<linearGradient id="SVGID_13_" gradientUnits="userSpaceOnUse" x1="240.4238" y1="102.0791" x2="208.4935" y2="197.8703">
			<stop  offset="3.018500e-004" style="stop-color:#FFFFFF;stop-opacity:0"/>
			<stop  offset="0.9997" style="stop-color:#000000"/>
		</linearGradient>
		<path opacity="0.8" fill="url(#SVGID_13_)" d="M273.096,75.531L153.33,144.677l119.766,69.146
			c11.769-20.342,18.508-43.957,18.508-69.146C291.604,119.487,284.864,95.872,273.096,75.531z"/>
		<linearGradient id="SVGID_14_" gradientUnits="userSpaceOnUse" x1="266.624" y1="76.1377" x2="272.5315" y2="77.1022">
			<stop  offset="0" style="stop-color:#8CAAB6"/>
			<stop  offset="0.9997" style="stop-color:#51646B"/>
		</linearGradient>
		<polygon fill="url(#SVGID_14_)" points="273.096,75.531 266.681,74.911 268.602,78.125 		"/>
	</g>
	<g>
		<linearGradient id="SVGID_15_" gradientUnits="userSpaceOnUse" x1="239.8779" y1="175.3574" x2="150.6723" y2="233.1604">
			<stop  offset="0" style="stop-color:#C3D2D9"/>
			<stop  offset="1" style="stop-color:#8F969E"/>
		</linearGradient>
		<path fill="url(#SVGID_15_)" d="M153.33,290.282c53.891,0,100.938-29.277,126.116-72.793L153.33,144.677V290.282z"/>
		<linearGradient id="SVGID_16_" gradientUnits="userSpaceOnUse" x1="224.3691" y1="270.3848" x2="187.092" y2="193.5574">
			<stop  offset="0" style="stop-color:#C3D2D9"/>
			<stop  offset="1" style="stop-color:#8F969E"/>
		</linearGradient>
		<path fill="url(#SVGID_16_)" d="M154.165,146.121l124.14,71.673c-12.484,21.291-30.303,39.154-51.572,51.691
			c-21.918,12.92-46.992,19.814-72.567,19.961V146.121z"/>
		<linearGradient id="SVGID_17_" gradientUnits="userSpaceOnUse" x1="149.4248" y1="276.1377" x2="153.9471" y2="284.8054">
			<stop  offset="0" style="stop-color:#C3D2D9"/>
			<stop  offset="1" style="stop-color:#8F969E"/>
		</linearGradient>
		<polygon fill="url(#SVGID_17_)" points="153.33,290.282 145.623,276.124 153.33,276.349 		"/>
		<linearGradient id="SVGID_18_" gradientUnits="userSpaceOnUse" x1="273.8721" y1="210.6475" x2="277.4566" y2="215.6984">
			<stop  offset="0" style="stop-color:#C3D2D9"/>
			<stop  offset="1" style="stop-color:#8F969E"/>
		</linearGradient>
		<polygon fill="url(#SVGID_18_)" points="279.446,217.489 275.747,209.021 273.096,213.823 		"/>
	</g>
	<g>
		<g>
			<linearGradient id="SVGID_19_" gradientUnits="userSpaceOnUse" x1="192.708" y1="197.0947" x2="91.0998" y2="61.8371">
				<stop  offset="0" style="stop-color:#CCCDCF"/>
				<stop  offset="1" style="stop-color:#FFFFFF"/>
			</linearGradient>
			<path fill="url(#SVGID_19_)" d="M153.332,207.735c-34.771,0-63.059-28.287-63.059-63.058c0-34.771,28.288-63.059,63.059-63.059
				c34.77,0,63.057,28.289,63.057,63.059C216.389,179.448,188.102,207.735,153.332,207.735z"/>
			<linearGradient id="SVGID_20_" gradientUnits="userSpaceOnUse" x1="189.3223" y1="192.5869" x2="96.4515" y2="68.9603">
				<stop  offset="0" style="stop-color:#CCCDCF"/>
				<stop  offset="1" style="stop-color:#FFFFFF"/>
			</linearGradient>
			<path fill="url(#SVGID_20_)" d="M153.332,202.312c-31.782,0-57.637-25.854-57.637-57.634c0-31.78,25.855-57.636,57.637-57.636
				c31.78,0,57.634,25.856,57.634,57.636C210.966,176.458,185.112,202.312,153.332,202.312z"/>
			<linearGradient id="SVGID_21_" gradientUnits="userSpaceOnUse" x1="188.2461" y1="191.1553" x2="98.1506" y2="71.223">
				<stop  offset="0" style="stop-color:#FFFFFF"/>
				<stop  offset="1" style="stop-color:#CCCDCF"/>
			</linearGradient>
			<circle fill="url(#SVGID_21_)" cx="153.331" cy="144.677" r="55.888"/>
		</g>
	</g>
</g>
<g>
	<g>
		<path fill="#FFFFFF" d="M193.774,224.579c-0.326-0.014-0.772-0.039-1.339-0.084v-6.359h3.177c0.449,0,0.854,0.063,1.214,0.189
			c0.359,0.125,0.642,0.305,0.845,0.539c0.202,0.234,0.305,0.506,0.305,0.813c0,0.383-0.084,0.682-0.25,0.9
			s-0.419,0.371-0.757,0.457c0.861,0.135,1.292,0.643,1.292,1.523c0,0.609-0.277,1.102-0.835,1.477s-1.42,0.563-2.589,0.563
			C194.455,224.597,194.101,224.591,193.774,224.579z M195.967,222.958c0.182-0.125,0.271-0.303,0.271-0.529
			c0-0.246-0.082-0.436-0.248-0.568s-0.403-0.199-0.712-0.199h-0.793v1.459c0.276,0.02,0.511,0.027,0.701,0.027
			C195.525,223.147,195.785,223.085,195.967,222.958z M195.225,220.646c0.238,0,0.438-0.059,0.595-0.174
			c0.156-0.117,0.236-0.27,0.236-0.453c0-0.438-0.272-0.656-0.813-0.656h-0.748v1.283H195.225z"/>
		<path fill="#FFFFFF" d="M199.092,218.136h2.132v6.352h-2.132V218.136z"/>
		<path fill="#FFFFFF" d="M202.425,218.136h2.76c0.664,0,1.253,0.133,1.767,0.396c0.514,0.266,0.914,0.635,1.2,1.107
			c0.286,0.475,0.43,1.016,0.43,1.625c0,0.641-0.141,1.203-0.42,1.689c-0.28,0.486-0.678,0.863-1.19,1.131
			c-0.516,0.268-1.11,0.402-1.786,0.402h-2.76V218.136z M205.091,222.825c0.462,0,0.814-0.146,1.059-0.439
			c0.241-0.291,0.363-0.672,0.363-1.139c0-0.443-0.119-0.797-0.354-1.057c-0.237-0.262-0.592-0.393-1.067-0.393h-0.628v3.027
			H205.091z"/>
		<path fill="#FFFFFF" d="M178.165,231.079h2.807l1.836,6.352h-2.169l-0.239-1.219h-1.644l-0.268,1.219h-2.078L178.165,231.079z
			 M180.177,235.075l-0.6-2.777l-0.628,2.777H180.177z"/>
		<path fill="#FFFFFF" d="M183.418,231.079h1.855l2.528,3.424v-3.424h1.653v6.352h-1.847l-2.548-3.305v3.305h-1.643V231.079z"/>
		<path fill="#FFFFFF" d="M191.854,231.079h2.807l1.837,6.352h-2.169l-0.24-1.219h-1.643l-0.269,1.219h-2.077L191.854,231.079z
			 M193.867,235.075l-0.601-2.777l-0.626,2.777H193.867z"/>
		<path fill="#FFFFFF" d="M197.107,231.079h1.993v4.947h2.207v1.404h-4.2V231.079z"/>
		<path fill="#FFFFFF" d="M202.526,235.667l-1.828-4.588h1.929l0.896,2.852l0.878-2.852h2.031l-1.92,4.588v1.764h-1.985V235.667z"/>
		<path fill="#FFFFFF" d="M207.964,232.481h-1.32v-1.402h4.791v1.402h-1.32v4.949h-2.15V232.481z"/>
		<path fill="#FFFFFF" d="M212.302,231.079h2.132v6.352h-2.132V231.079z"/>
		<path fill="#FFFFFF" d="M216.95,237.14c-0.502-0.293-0.898-0.693-1.191-1.201s-0.438-1.068-0.438-1.684
			c0-0.629,0.141-1.193,0.425-1.699c0.282-0.504,0.67-0.9,1.163-1.186c0.493-0.287,1.046-0.43,1.662-0.43
			c0.332,0,0.658,0.039,0.978,0.119c0.32,0.08,0.594,0.193,0.822,0.342l-0.25,1.432c-0.442-0.166-0.843-0.25-1.2-0.25
			c-0.491,0-0.87,0.143-1.134,0.43c-0.265,0.285-0.398,0.697-0.398,1.232c0,0.523,0.142,0.932,0.421,1.223
			c0.279,0.293,0.668,0.439,1.167,0.439c0.191,0,0.37-0.02,0.536-0.057c0.166-0.035,0.368-0.104,0.608-0.203l0.259,1.459
			c-0.535,0.314-1.119,0.471-1.753,0.471C218.01,237.577,217.451,237.431,216.95,237.14z"/>
		<path fill="#FFFFFF" d="M220.98,237.099l0.461-1.432c0.634,0.227,1.199,0.342,1.697,0.342c0.271,0,0.469-0.033,0.596-0.098
			c0.126-0.064,0.189-0.16,0.189-0.291c0-0.086-0.033-0.16-0.102-0.227c-0.067-0.064-0.202-0.137-0.405-0.217
			c-0.204-0.08-0.508-0.178-0.915-0.295c-0.499-0.148-0.887-0.389-1.163-0.725c-0.276-0.334-0.414-0.721-0.414-1.158
			c0-0.678,0.222-1.189,0.668-1.537s1.048-0.521,1.805-0.521c0.394,0,0.781,0.041,1.163,0.125c0.382,0.082,0.721,0.205,1.016,0.363
			l-0.499,1.395c-0.344-0.117-0.645-0.201-0.899-0.254c-0.256-0.053-0.502-0.078-0.742-0.078c-0.407,0-0.61,0.111-0.61,0.332
			c0,0.111,0.066,0.205,0.198,0.281c0.132,0.078,0.405,0.174,0.817,0.291c0.646,0.174,1.136,0.436,1.468,0.789
			s0.499,0.777,0.499,1.27c0,0.684-0.223,1.207-0.666,1.574c-0.441,0.365-1.098,0.549-1.965,0.549
			C222.309,237.577,221.576,237.417,220.98,237.099z"/>
	</g>
</g>
<g>
	<g>
		<path fill="#FFFFFF" d="M27.733,134.669h4.458v1.403h-2.214v1.154h2.021v1.163h-2.021v1.228h2.214v1.403h-4.458V134.669z"/>
		<path fill="#FFFFFF" d="M34.387,137.864l-1.707-3.194h2.095l0.748,1.606l0.749-1.606h2.132l-1.717,3.194l1.773,3.157h-2.134
			l-0.802-1.579l-0.804,1.579h-2.094L34.387,137.864z"/>
		<path fill="#FFFFFF" d="M39.067,134.669h4.459v1.403h-2.216v1.154h2.022v1.163h-2.022v1.228h2.216v1.403h-4.459V134.669z"/>
		<path fill="#FFFFFF" d="M45.876,140.73c-0.501-0.292-0.898-0.692-1.191-1.2c-0.293-0.507-0.438-1.069-0.438-1.685
			c0-0.628,0.141-1.194,0.425-1.699c0.282-0.505,0.67-0.9,1.163-1.186c0.493-0.286,1.046-0.429,1.662-0.429
			c0.332,0,0.658,0.04,0.978,0.12c0.32,0.081,0.593,0.194,0.822,0.342l-0.25,1.431c-0.443-0.167-0.843-0.25-1.2-0.25
			c-0.492,0-0.87,0.143-1.135,0.429c-0.264,0.286-0.398,0.697-0.398,1.232c0,0.523,0.141,0.931,0.42,1.223
			c0.28,0.292,0.669,0.438,1.167,0.438c0.191,0,0.37-0.019,0.537-0.056c0.165-0.037,0.368-0.104,0.608-0.203l0.258,1.459
			c-0.535,0.313-1.119,0.471-1.753,0.471C46.936,141.168,46.377,141.022,45.876,140.73z"/>
		<path fill="#FFFFFF" d="M51.589,140.818c-0.477-0.234-0.848-0.563-1.112-0.983c-0.264-0.421-0.396-0.903-0.396-1.445v-3.72h2.085
			v3.72c0,0.369,0.09,0.646,0.268,0.831c0.179,0.185,0.44,0.277,0.786,0.277c0.344,0,0.605-0.094,0.784-0.281
			c0.179-0.188,0.268-0.464,0.268-0.827v-3.72h2.087v3.72c0,0.542-0.132,1.023-0.398,1.445c-0.265,0.421-0.636,0.749-1.112,0.983
			c-0.477,0.233-1.021,0.351-1.629,0.351C52.609,141.168,52.067,141.051,51.589,140.818z"/>
		<path fill="#FFFFFF" d="M58.49,136.073h-1.321v-1.403h4.792v1.403h-1.319v4.948H58.49V136.073z"/>
		<path fill="#FFFFFF" d="M62.829,134.669h2.132v6.352h-2.132V134.669z"/>
		<path fill="#FFFFFF" d="M65.58,134.669h2.085l0.979,3.96l0.979-3.96h2.179l-1.985,6.352h-2.354L65.58,134.669z"/>
		<path fill="#FFFFFF" d="M72.366,134.669h4.458v1.403h-2.214v1.154h2.021v1.163h-2.021v1.228h2.214v1.403h-4.458V134.669z"/>
		<path fill="#FFFFFF" d="M38.292,152.505l-0.231-0.951h-0.433v2.41h-2.022v-6.352h2.798c0.529,0,0.995,0.078,1.399,0.236
			c0.402,0.156,0.715,0.377,0.936,0.66c0.222,0.283,0.332,0.609,0.332,0.979c0,0.412-0.099,0.758-0.299,1.037
			c-0.2,0.281-0.51,0.51-0.929,0.688c0.043,0.234,0.093,0.447,0.148,0.639c0.074,0.232,0.174,0.396,0.304,0.488
			s0.317,0.139,0.563,0.139c0.085,0,0.222-0.012,0.406-0.037v1.504c-0.289,0.111-0.573,0.168-0.849,0.168
			C39.258,154.112,38.551,153.575,38.292,152.505z M37.978,150.263c0.456,0,0.777-0.051,0.965-0.152
			c0.188-0.102,0.282-0.275,0.282-0.523c0-0.207-0.078-0.361-0.231-0.455c-0.153-0.096-0.396-0.143-0.729-0.143h-0.637v1.273H37.978
			z"/>
		<path fill="#FFFFFF" d="M42.05,147.612h4.458v1.404h-2.215v1.154h2.021v1.162h-2.021v1.227h2.215v1.404H42.05V147.612z"/>
		<path fill="#FFFFFF" d="M46.96,147.612h2.087l0.978,3.961l0.978-3.961h2.179l-1.985,6.352h-2.354L46.96,147.612z"/>
		<path fill="#FFFFFF" d="M53.745,147.612h2.132v6.352h-2.132V147.612z"/>
		<path fill="#FFFFFF" d="M57.078,147.612h4.459v1.404h-2.216v1.154h2.022v1.162h-2.022v1.227h2.216v1.404h-4.459V147.612z"/>
		<path fill="#FFFFFF" d="M62.164,147.612h2.078l0.599,4.053l0.619-2.973h2.15l0.628,2.973l0.6-4.053h2.078l-1.441,6.352h-2.15
			l-0.784-3.416l-0.786,3.416h-2.15L62.164,147.612z"/>
	</g>
</g>
<g>
	<g>
		<path fill="#FFFFFF" d="M85.912,61.968c-0.514-0.283-0.914-0.675-1.201-1.176c-0.286-0.502-0.428-1.073-0.428-1.713
			c0-0.646,0.143-1.222,0.428-1.727c0.287-0.504,0.687-0.896,1.201-1.176c0.514-0.28,1.103-0.42,1.768-0.42
			c0.664,0,1.253,0.14,1.767,0.42s0.915,0.671,1.201,1.172c0.285,0.502,0.43,1.079,0.43,1.731c0,0.64-0.145,1.211-0.43,1.713
			c-0.286,0.501-0.688,0.894-1.205,1.176c-0.517,0.283-1.104,0.425-1.763,0.425C87.015,62.393,86.426,62.251,85.912,61.968z
			 M88.636,60.26c0.248-0.301,0.373-0.699,0.373-1.191c0-0.326-0.055-0.617-0.169-0.872s-0.272-0.455-0.477-0.6
			c-0.203-0.145-0.433-0.217-0.691-0.217c-0.252,0-0.481,0.073-0.684,0.217c-0.203,0.145-0.361,0.345-0.47,0.6
			c-0.111,0.255-0.167,0.546-0.167,0.872c0,0.492,0.123,0.89,0.37,1.191c0.247,0.302,0.566,0.452,0.96,0.452
			C88.068,60.712,88.387,60.562,88.636,60.26z"/>
		<path fill="#FFFFFF" d="M91.964,55.894h1.855l2.529,3.425v-3.425h1.653v6.351h-1.847l-2.548-3.305v3.305h-1.642V55.894z"/>
		<path fill="#FFFFFF" d="M99.2,55.894h1.994v4.948h2.207v1.403H99.2V55.894z"/>
		<path fill="#FFFFFF" d="M104.167,55.894h2.132v6.351h-2.132V55.894z"/>
		<path fill="#FFFFFF" d="M107.5,55.894h1.855l2.529,3.425v-3.425h1.653v6.351h-1.847l-2.548-3.305v3.305H107.5V55.894z"/>
		<path fill="#FFFFFF" d="M114.737,55.894h4.458v1.403h-2.214v1.154h2.021v1.163h-2.021v1.228h2.214v1.403h-4.458V55.894z"/>
		<path fill="#FFFFFF" d="M81.024,68.837h2.76c0.664,0,1.253,0.132,1.767,0.397c0.514,0.265,0.914,0.634,1.201,1.108
			c0.285,0.474,0.43,1.015,0.43,1.624c0,0.641-0.142,1.204-0.421,1.69c-0.279,0.486-0.678,0.863-1.19,1.13
			c-0.515,0.268-1.11,0.402-1.787,0.402h-2.76V68.837z M83.691,73.526c0.461,0,0.814-0.146,1.058-0.439
			c0.242-0.292,0.364-0.671,0.364-1.14c0-0.443-0.119-0.795-0.355-1.057c-0.237-0.262-0.592-0.392-1.066-0.392h-0.628v3.027H83.691z
			"/>
		<path fill="#FFFFFF" d="M88.077,68.837h4.458v1.403H90.32v1.154h2.021v1.163H90.32v1.228h2.214v1.403h-4.458V68.837z"/>
		<path fill="#FFFFFF" d="M93.568,68.837h1.994v4.948h2.207v1.403h-4.201V68.837z"/>
		<path fill="#FFFFFF" d="M98.536,68.837h2.132v6.351h-2.132V68.837z"/>
		<path fill="#FFFFFF" d="M101.287,68.837h2.085l0.979,3.96l0.979-3.96h2.179l-1.985,6.351h-2.354L101.287,68.837z"/>
		<path fill="#FFFFFF" d="M108.07,68.837h4.459v1.403h-2.216v1.154h2.022v1.163h-2.022v1.228h2.216v1.403h-4.459V68.837z"/>
		<path fill="#FFFFFF" d="M116.25,73.729l-0.231-0.95h-0.433v2.409h-2.022v-6.351h2.798c0.529,0,0.995,0.078,1.399,0.235
			c0.402,0.157,0.715,0.377,0.936,0.66c0.222,0.283,0.332,0.609,0.332,0.979c0,0.412-0.099,0.758-0.299,1.039
			c-0.2,0.28-0.509,0.509-0.928,0.688c0.043,0.234,0.093,0.446,0.148,0.637c0.074,0.233,0.174,0.396,0.304,0.489
			c0.129,0.093,0.317,0.139,0.563,0.139c0.085,0,0.222-0.013,0.406-0.038v1.505c-0.289,0.111-0.573,0.167-0.849,0.167
			C117.216,75.336,116.508,74.8,116.25,73.729z M115.936,71.487c0.455,0,0.777-0.051,0.965-0.152
			c0.188-0.102,0.282-0.276,0.282-0.522c0-0.209-0.078-0.361-0.231-0.457c-0.153-0.096-0.396-0.143-0.729-0.143h-0.637v1.274
			H115.936z"/>
		<path fill="#FFFFFF" d="M121.078,73.425l-1.827-4.588h1.929l0.896,2.853l0.877-2.853h2.03l-1.92,4.588v1.763h-1.985V73.425z"/>
	</g>
</g>
<g>
	<g>
		<path fill="#FFFFFF" d="M170.538,51.278h2.76c0.666,0,1.255,0.132,1.769,0.396c0.514,0.265,0.913,0.634,1.199,1.108
			c0.287,0.474,0.43,1.015,0.43,1.624c0,0.641-0.14,1.204-0.419,1.689c-0.281,0.486-0.678,0.863-1.192,1.131
			c-0.514,0.268-1.108,0.402-1.786,0.402h-2.76V51.278z M173.206,55.968c0.462,0,0.813-0.146,1.057-0.439
			c0.243-0.292,0.365-0.671,0.365-1.14c0-0.443-0.119-0.795-0.356-1.057c-0.235-0.261-0.592-0.392-1.065-0.392h-0.628v3.028H173.206
			z"/>
		<path fill="#FFFFFF" d="M178.907,57.352c-0.515-0.282-0.915-0.675-1.201-1.176c-0.287-0.502-0.43-1.073-0.43-1.713
			c0-0.646,0.143-1.222,0.43-1.727c0.286-0.504,0.687-0.896,1.201-1.176c0.514-0.28,1.103-0.42,1.767-0.42
			c0.665,0,1.255,0.14,1.769,0.42s0.913,0.671,1.2,1.172c0.285,0.502,0.429,1.079,0.429,1.731c0,0.64-0.144,1.211-0.429,1.713
			c-0.287,0.501-0.688,0.894-1.205,1.176c-0.517,0.283-1.105,0.425-1.764,0.425C180.01,57.777,179.421,57.635,178.907,57.352z
			 M181.629,55.645c0.25-0.301,0.374-0.699,0.374-1.191c0-0.326-0.057-0.617-0.171-0.872s-0.271-0.455-0.475-0.6
			c-0.203-0.145-0.435-0.217-0.692-0.217c-0.253,0-0.479,0.073-0.684,0.217c-0.203,0.145-0.359,0.345-0.471,0.6
			s-0.167,0.546-0.167,0.872c0,0.492,0.123,0.89,0.37,1.191c0.246,0.302,0.566,0.452,0.96,0.452
			C181.062,56.097,181.38,55.947,181.629,55.645z"/>
		<path fill="#FFFFFF" d="M186.273,57.338c-0.502-0.292-0.898-0.692-1.191-1.2c-0.293-0.507-0.438-1.069-0.438-1.685
			c0-0.628,0.141-1.193,0.425-1.698c0.282-0.505,0.67-0.9,1.163-1.187c0.493-0.286,1.046-0.429,1.662-0.429
			c0.332,0,0.657,0.04,0.978,0.12s0.594,0.193,0.822,0.342l-0.25,1.431c-0.443-0.167-0.843-0.25-1.2-0.25
			c-0.491,0-0.87,0.143-1.135,0.429c-0.264,0.286-0.397,0.697-0.397,1.233c0,0.523,0.141,0.931,0.421,1.223
			c0.279,0.292,0.668,0.438,1.167,0.438c0.19,0,0.369-0.018,0.536-0.055c0.165-0.037,0.368-0.104,0.608-0.204l0.259,1.459
			c-0.535,0.314-1.119,0.471-1.753,0.471C187.333,57.777,186.773,57.631,186.273,57.338z"/>
		<path fill="#FFFFFF" d="M191.986,57.426c-0.477-0.234-0.848-0.562-1.112-0.983c-0.265-0.421-0.396-0.903-0.396-1.444v-3.72h2.085
			v3.72c0,0.369,0.091,0.646,0.268,0.831c0.179,0.185,0.44,0.276,0.786,0.276c0.344,0,0.605-0.093,0.784-0.281
			c0.179-0.188,0.268-0.463,0.268-0.826v-3.72h2.087v3.72c0,0.542-0.132,1.023-0.398,1.444c-0.265,0.422-0.636,0.749-1.111,0.983
			c-0.477,0.234-1.021,0.351-1.629,0.351C193.006,57.777,192.464,57.66,191.986,57.426z"/>
		<path fill="#FFFFFF" d="M197.899,51.278h1.921l1.586,3.083l1.553-3.083h1.918v6.351h-1.918v-3.388l-1.174,2.215h-0.784
			l-1.181-2.215v3.388h-1.921V51.278z"/>
		<path fill="#FFFFFF" d="M206.088,51.278h4.458v1.403h-2.215v1.154h2.021v1.163h-2.021v1.228h2.215v1.403h-4.458V51.278z"/>
		<path fill="#FFFFFF" d="M211.58,51.278h1.855l2.53,3.425v-3.425h1.651v6.351h-1.847l-2.547-3.305v3.305h-1.644V51.278z"/>
		<path fill="#FFFFFF" d="M219.805,52.682h-1.321v-1.403h4.792v1.403h-1.319v4.948h-2.151V52.682z"/>
		<path fill="#FFFFFF" d="M169.476,70.273c-0.497-0.299-0.888-0.707-1.172-1.224c-0.282-0.517-0.424-1.085-0.424-1.708
			c0-0.596,0.143-1.145,0.429-1.643c0.287-0.499,0.685-0.892,1.195-1.182c0.511-0.289,1.093-0.434,1.745-0.434
			c0.357,0,0.703,0.04,1.038,0.12c0.336,0.081,0.639,0.194,0.91,0.342l-0.61,1.431c-0.419-0.173-0.81-0.258-1.172-0.258
			c-0.475,0-0.84,0.152-1.098,0.457c-0.259,0.304-0.388,0.703-0.388,1.195c0,0.32,0.057,0.608,0.174,0.863s0.282,0.457,0.494,0.604
			c0.212,0.147,0.454,0.222,0.725,0.222c0.148,0,0.271-0.013,0.369-0.037v-1.487l1.598-0.185v2.89
			c-0.695,0.32-1.406,0.48-2.132,0.48C170.535,70.721,169.975,70.571,169.476,70.273z"/>
		<path fill="#FFFFFF" d="M174.287,64.222h4.457v1.403h-2.214v1.154h2.021v1.163h-2.021v1.228h2.214v1.403h-4.457V64.222z"/>
		<path fill="#FFFFFF" d="M179.778,64.222h1.855l2.53,3.425v-3.425h1.651v6.351h-1.847l-2.547-3.305v3.305h-1.644V64.222z"/>
		<path fill="#FFFFFF" d="M187.016,64.222h4.459v1.403h-2.216v1.154h2.022v1.163h-2.022v1.228h2.216v1.403h-4.459V64.222z"/>
		<path fill="#FFFFFF" d="M195.195,69.114l-0.231-0.951h-0.435v2.409h-2.021v-6.351h2.796c0.529,0,0.996,0.078,1.399,0.235
			c0.402,0.157,0.715,0.377,0.938,0.661c0.221,0.283,0.332,0.609,0.332,0.978c0,0.412-0.101,0.759-0.301,1.039
			c-0.2,0.28-0.51,0.509-0.927,0.687c0.042,0.234,0.092,0.446,0.146,0.637c0.074,0.233,0.176,0.396,0.306,0.489
			c0.129,0.092,0.316,0.139,0.563,0.139c0.085,0,0.221-0.013,0.405-0.038v1.505c-0.29,0.111-0.572,0.167-0.849,0.167
			C196.161,70.721,195.454,70.185,195.195,69.114z M194.881,66.871c0.456,0,0.777-0.051,0.965-0.152
			c0.188-0.102,0.281-0.276,0.281-0.522c0-0.208-0.077-0.361-0.231-0.457c-0.153-0.095-0.396-0.143-0.729-0.143h-0.638v1.274
			H194.881z"/>
		<path fill="#FFFFFF" d="M200.152,64.222h2.807l1.836,6.351h-2.17l-0.239-1.218h-1.644l-0.268,1.218h-2.077L200.152,64.222z
			 M202.164,68.219l-0.6-2.779l-0.628,2.779H202.164z"/>
		<path fill="#FFFFFF" d="M205.931,65.625h-1.321v-1.403h4.792v1.403h-1.319v4.947h-2.151V65.625z"/>
		<path fill="#FFFFFF" d="M210.27,64.222h2.132v6.351h-2.132V64.222z"/>
		<path fill="#FFFFFF" d="M214.917,70.295c-0.514-0.283-0.914-0.675-1.2-1.177s-0.429-1.073-0.429-1.713
			c0-0.646,0.143-1.221,0.429-1.726c0.286-0.504,0.687-0.896,1.2-1.176c0.514-0.28,1.103-0.42,1.769-0.42
			c0.664,0,1.253,0.14,1.767,0.42c0.514,0.28,0.915,0.67,1.2,1.172c0.286,0.501,0.43,1.079,0.43,1.73c0,0.64-0.144,1.211-0.43,1.713
			c-0.285,0.501-0.688,0.894-1.205,1.177c-0.517,0.283-1.104,0.425-1.762,0.425C216.02,70.721,215.431,70.579,214.917,70.295z
			 M217.641,68.588c0.248-0.301,0.373-0.699,0.373-1.191c0-0.326-0.056-0.617-0.17-0.872s-0.272-0.456-0.477-0.601
			c-0.203-0.144-0.433-0.217-0.691-0.217c-0.252,0-0.48,0.073-0.684,0.217c-0.202,0.145-0.36,0.345-0.47,0.601
			c-0.111,0.255-0.167,0.546-0.167,0.872c0,0.492,0.123,0.89,0.37,1.191c0.246,0.302,0.566,0.452,0.96,0.452
			C217.073,69.04,217.392,68.89,217.641,68.588z"/>
		<path fill="#FFFFFF" d="M220.969,64.222h1.855l2.529,3.425v-3.425h1.652v6.351h-1.847l-2.548-3.305v3.305h-1.643V64.222z"/>
	</g>
</g>
<g>
	<g>
		<path fill="#FFFFFF" d="M230.093,136.867l-0.231-0.95h-0.434v2.409h-2.021v-6.351h2.797c0.528,0,0.996,0.078,1.398,0.235
			c0.402,0.157,0.715,0.377,0.938,0.661c0.221,0.283,0.332,0.609,0.332,0.978c0,0.413-0.101,0.759-0.301,1.039
			c-0.199,0.28-0.509,0.509-0.927,0.688c0.042,0.234,0.092,0.446,0.147,0.637c0.073,0.234,0.176,0.397,0.305,0.489
			s0.317,0.139,0.563,0.139c0.086,0,0.221-0.013,0.405-0.037v1.504c-0.289,0.111-0.572,0.167-0.849,0.167
			C231.059,138.474,230.352,137.938,230.093,136.867z M229.779,134.624c0.455,0,0.776-0.051,0.964-0.152
			c0.188-0.102,0.281-0.276,0.281-0.522c0-0.209-0.076-0.361-0.231-0.457c-0.153-0.095-0.396-0.143-0.729-0.143h-0.637v1.274
			H229.779z"/>
		<path fill="#FFFFFF" d="M233.85,131.975h4.459v1.403h-2.216v1.154h2.022v1.163h-2.022v1.228h2.216v1.403h-4.459V131.975z"/>
		<path fill="#FFFFFF" d="M239.111,137.994l0.461-1.431c0.634,0.228,1.2,0.342,1.699,0.342c0.271,0,0.469-0.032,0.595-0.097
			c0.126-0.064,0.189-0.161,0.189-0.291c0-0.086-0.034-0.162-0.103-0.227c-0.067-0.064-0.202-0.137-0.405-0.216
			c-0.203-0.08-0.508-0.179-0.913-0.295c-0.499-0.148-0.887-0.39-1.163-0.725c-0.278-0.335-0.416-0.721-0.416-1.159
			c0-0.677,0.224-1.189,0.67-1.537c0.446-0.348,1.047-0.521,1.805-0.521c0.394,0,0.781,0.041,1.162,0.124
			c0.382,0.083,0.72,0.205,1.017,0.365l-0.499,1.394c-0.345-0.116-0.645-0.201-0.9-0.254c-0.255-0.052-0.503-0.078-0.743-0.078
			c-0.406,0-0.609,0.111-0.609,0.332c0,0.111,0.066,0.205,0.199,0.282c0.132,0.078,0.403,0.174,0.816,0.291
			c0.646,0.173,1.135,0.436,1.469,0.79c0.332,0.354,0.497,0.777,0.497,1.269c0,0.684-0.221,1.208-0.664,1.574
			s-1.099,0.55-1.967,0.55C240.44,138.474,239.707,138.313,239.111,137.994z"/>
		<path fill="#FFFFFF" d="M244.807,131.975h2.29c0.948,0,1.682,0.185,2.201,0.554c0.52,0.37,0.779,0.886,0.779,1.551
			c0,0.418-0.127,0.784-0.383,1.098c-0.255,0.314-0.603,0.555-1.043,0.724c-0.439,0.17-0.927,0.254-1.463,0.254h-0.388v2.17h-1.994
			V131.975z M247.954,134.67c0.18-0.135,0.268-0.332,0.268-0.59c0-0.259-0.087-0.453-0.263-0.582
			c-0.174-0.129-0.428-0.194-0.762-0.194h-0.396v1.551c0.123,0.012,0.255,0.018,0.396,0.018
			C247.523,134.873,247.775,134.805,247.954,134.67z"/>
		<path fill="#FFFFFF" d="M252.113,138.048c-0.514-0.282-0.915-0.675-1.2-1.176c-0.287-0.502-0.43-1.073-0.43-1.713
			c0-0.646,0.143-1.222,0.43-1.727c0.285-0.504,0.687-0.896,1.2-1.176s1.103-0.42,1.767-0.42c0.666,0,1.255,0.14,1.769,0.42
			s0.914,0.671,1.201,1.172c0.285,0.502,0.428,1.079,0.428,1.731c0,0.64-0.143,1.211-0.428,1.713
			c-0.287,0.501-0.688,0.894-1.205,1.176c-0.518,0.283-1.106,0.425-1.765,0.425C253.216,138.474,252.627,138.332,252.113,138.048z
			 M254.836,136.341c0.249-0.301,0.374-0.699,0.374-1.191c0-0.326-0.057-0.617-0.171-0.872s-0.272-0.455-0.476-0.6
			c-0.202-0.145-0.434-0.217-0.692-0.217c-0.252,0-0.479,0.073-0.684,0.217c-0.203,0.145-0.359,0.345-0.47,0.6
			c-0.111,0.255-0.167,0.546-0.167,0.872c0,0.492,0.123,0.89,0.369,1.191c0.247,0.302,0.566,0.452,0.96,0.452
			C254.268,136.793,254.587,136.643,254.836,136.341z"/>
		<path fill="#FFFFFF" d="M258.164,131.975h1.855l2.53,3.425v-3.425h1.651v6.351h-1.847l-2.547-3.305v3.305h-1.644V131.975z"/>
		<path fill="#FFFFFF" d="M265.172,137.994l0.461-1.431c0.634,0.228,1.199,0.342,1.697,0.342c0.271,0,0.469-0.032,0.596-0.097
			c0.126-0.064,0.189-0.161,0.189-0.291c0-0.086-0.033-0.162-0.102-0.227c-0.067-0.064-0.202-0.137-0.405-0.216
			c-0.204-0.08-0.508-0.179-0.915-0.295c-0.499-0.148-0.887-0.39-1.163-0.725s-0.414-0.721-0.414-1.159
			c0-0.677,0.222-1.189,0.668-1.537c0.446-0.348,1.048-0.521,1.805-0.521c0.394,0,0.781,0.041,1.163,0.124s0.721,0.205,1.016,0.365
			l-0.499,1.394c-0.344-0.116-0.645-0.201-0.899-0.254c-0.256-0.052-0.502-0.078-0.742-0.078c-0.407,0-0.61,0.111-0.61,0.332
			c0,0.111,0.066,0.205,0.198,0.282c0.132,0.078,0.405,0.174,0.817,0.291c0.646,0.173,1.136,0.436,1.468,0.79
			c0.332,0.354,0.499,0.777,0.499,1.269c0,0.684-0.223,1.208-0.666,1.574c-0.441,0.366-1.098,0.55-1.965,0.55
			C266.5,138.474,265.768,138.313,265.172,137.994z"/>
		<path fill="#FFFFFF" d="M270.866,131.975h4.459v1.403h-2.216v1.154h2.022v1.163h-2.022v1.228h2.216v1.403h-4.459V131.975z"/>
		<path fill="#FFFFFF" d="M219.67,144.917h1.921l1.588,3.083l1.551-3.083h1.92v6.352h-1.92v-3.389l-1.172,2.216h-0.786l-1.181-2.216
			v3.389h-1.921V144.917z"/>
		<path fill="#FFFFFF" d="M229.058,144.917h2.807l1.838,6.352h-2.17l-0.24-1.219h-1.643l-0.269,1.219h-2.076L229.058,144.917z
			 M231.071,148.916l-0.602-2.779l-0.626,2.779H231.071z"/>
		<path fill="#FFFFFF" d="M234.312,144.917h1.856l2.528,3.425v-3.425h1.652v6.352h-1.847l-2.548-3.305v3.305h-1.643V144.917z"/>
		<path fill="#FFFFFF" d="M242.748,144.917h2.807l1.836,6.352h-2.169l-0.239-1.219h-1.644l-0.268,1.219h-2.078L242.748,144.917z
			 M244.76,148.916l-0.599-2.779l-0.629,2.779H244.76z"/>
		<path fill="#FFFFFF" d="M249.273,150.969c-0.497-0.299-0.888-0.706-1.172-1.223c-0.282-0.518-0.424-1.086-0.424-1.708
			c0-0.597,0.143-1.145,0.429-1.643c0.287-0.499,0.685-0.893,1.196-1.182c0.511-0.289,1.092-0.434,1.744-0.434
			c0.357,0,0.703,0.04,1.038,0.12c0.337,0.081,0.639,0.194,0.91,0.342l-0.609,1.431c-0.42-0.173-0.811-0.258-1.172-0.258
			c-0.476,0-0.841,0.151-1.099,0.457c-0.259,0.304-0.388,0.704-0.388,1.195c0,0.32,0.057,0.608,0.174,0.863
			c0.117,0.256,0.283,0.457,0.495,0.605c0.211,0.146,0.453,0.222,0.724,0.222c0.148,0,0.271-0.014,0.37-0.037v-1.487l1.597-0.185
			v2.891c-0.695,0.318-1.406,0.479-2.132,0.479C250.333,151.416,249.772,151.268,249.273,150.969z"/>
		<path fill="#FFFFFF" d="M254.085,144.917h4.458v1.403h-2.215v1.154h2.021v1.163h-2.021v1.228h2.215v1.404h-4.458V144.917z"/>
		<path fill="#FFFFFF" d="M259.576,144.917h1.92l1.589,3.083l1.55-3.083h1.921v6.352h-1.921v-3.389l-1.172,2.216h-0.785
			l-1.182-2.216v3.389h-1.92V144.917z"/>
		<path fill="#FFFFFF" d="M267.765,144.917h4.46v1.403h-2.217v1.154h2.022v1.163h-2.022v1.228h2.217v1.404h-4.46V144.917z"/>
		<path fill="#FFFFFF" d="M273.258,144.917h1.855l2.529,3.425v-3.425h1.652v6.352h-1.847l-2.548-3.305v3.305h-1.643V144.917z"/>
		<path fill="#FFFFFF" d="M281.482,146.321h-1.32v-1.403h4.791v1.403h-1.319v4.949h-2.151V146.321z"/>
	</g>
</g>
<g>
	<g>
		<path fill="#FFFFFF" d="M73.016,211.845h2.132v6.352h-2.132V211.845z"/>
		<path fill="#FFFFFF" d="M76.349,211.845h1.855l2.529,3.426v-3.426h1.653v6.352h-1.847l-2.548-3.305v3.305h-1.642V211.845z"/>
		<path fill="#FFFFFF" d="M84.573,213.249h-1.321v-1.404h4.792v1.404h-1.319v4.947h-2.151V213.249z"/>
		<path fill="#FFFFFF" d="M88.913,211.845h4.458v1.404h-2.214v1.152h2.021v1.164h-2.021v1.227h2.214v1.404h-4.458V211.845z"/>
		<path fill="#FFFFFF" d="M94.404,211.845h1.994v4.947h2.207v1.404h-4.201V211.845z"/>
		<path fill="#FFFFFF" d="M99.371,211.845h1.994v4.947h2.206v1.404h-4.2V211.845z"/>
		<path fill="#FFFFFF" d="M104.337,211.845h2.132v6.352h-2.132V211.845z"/>
		<path fill="#FFFFFF" d="M108.943,217.897c-0.499-0.299-0.889-0.707-1.172-1.225c-0.284-0.518-0.425-1.086-0.425-1.707
			c0-0.598,0.143-1.145,0.43-1.645c0.286-0.498,0.684-0.893,1.195-1.18c0.511-0.291,1.092-0.436,1.746-0.436
			c0.356,0,0.703,0.041,1.039,0.121c0.335,0.08,0.638,0.193,0.909,0.34l-0.608,1.434c-0.419-0.174-0.81-0.26-1.173-0.26
			c-0.474,0-0.84,0.152-1.099,0.457c-0.258,0.303-0.388,0.703-0.388,1.195c0,0.318,0.059,0.607,0.176,0.863s0.281,0.457,0.493,0.604
			c0.213,0.148,0.454,0.223,0.726,0.223c0.147,0,0.271-0.014,0.37-0.037v-1.486l1.596-0.186v2.891
			c-0.694,0.32-1.406,0.48-2.132,0.48C110.001,218.345,109.442,218.194,108.943,217.897z"/>
		<path fill="#FFFFFF" d="M113.753,211.845h4.458v1.404h-2.215v1.152h2.021v1.164h-2.021v1.227h2.215v1.404h-4.458V211.845z"/>
		<path fill="#FFFFFF" d="M119.246,211.845h1.855l2.529,3.426v-3.426h1.653v6.352h-1.847l-2.548-3.305v3.305h-1.642V211.845z"/>
		<path fill="#FFFFFF" d="M127.471,213.249h-1.321v-1.404h4.792v1.404h-1.321v4.947h-2.15V213.249z"/>
		<path fill="#FFFFFF" d="M84.999,224.788h2.132v6.352h-2.132V224.788z"/>
		<path fill="#FFFFFF" d="M88.331,224.788h1.92l1.587,3.084l1.552-3.084h1.919v6.352H93.39v-3.389l-1.173,2.215h-0.784l-1.181-2.215
			v3.389h-1.92V224.788z"/>
		<path fill="#FFFFFF" d="M96.518,224.788h2.29c0.948,0,1.681,0.186,2.201,0.553c0.52,0.371,0.78,0.887,0.78,1.553
			c0,0.418-0.127,0.785-0.383,1.098c-0.255,0.314-0.602,0.555-1.042,0.725s-0.927,0.254-1.463,0.254h-0.388v2.17h-1.994V224.788z
			 M99.666,227.483c0.179-0.135,0.268-0.332,0.268-0.59c0-0.26-0.087-0.453-0.263-0.582c-0.174-0.131-0.428-0.195-0.762-0.195
			h-0.396v1.553c0.123,0.012,0.255,0.018,0.396,0.018C99.234,227.687,99.487,227.62,99.666,227.483z"/>
		<path fill="#FFFFFF" d="M103.825,230.862c-0.514-0.283-0.914-0.676-1.201-1.178c-0.286-0.502-0.428-1.072-0.428-1.713
			c0-0.645,0.143-1.221,0.428-1.727c0.287-0.502,0.687-0.895,1.201-1.176c0.514-0.279,1.103-0.418,1.768-0.418
			c0.664,0,1.253,0.139,1.767,0.418c0.514,0.281,0.915,0.672,1.201,1.172c0.285,0.502,0.43,1.08,0.43,1.73
			c0,0.641-0.145,1.211-0.43,1.713c-0.286,0.502-0.688,0.895-1.205,1.178c-0.517,0.283-1.104,0.424-1.763,0.424
			C104.927,231.286,104.338,231.146,103.825,230.862z M106.548,229.155c0.248-0.303,0.373-0.699,0.373-1.191
			c0-0.326-0.055-0.617-0.169-0.871c-0.114-0.256-0.272-0.457-0.477-0.602c-0.203-0.145-0.433-0.217-0.691-0.217
			c-0.252,0-0.481,0.072-0.684,0.217c-0.203,0.145-0.361,0.346-0.47,0.602c-0.111,0.254-0.167,0.545-0.167,0.871
			c0,0.492,0.123,0.889,0.37,1.191c0.247,0.301,0.566,0.451,0.96,0.451C105.98,229.606,106.299,229.456,106.548,229.155z"/>
		<path fill="#FFFFFF" d="M112.563,229.681l-0.231-0.951h-0.434v2.41h-2.021v-6.352h2.796c0.529,0,0.996,0.078,1.398,0.234
			c0.403,0.158,0.715,0.377,0.938,0.662c0.221,0.281,0.332,0.607,0.332,0.979c0,0.41-0.101,0.758-0.3,1.037
			c-0.2,0.281-0.509,0.51-0.927,0.688c0.042,0.234,0.091,0.447,0.147,0.639c0.074,0.232,0.176,0.396,0.305,0.488
			c0.129,0.092,0.317,0.139,0.563,0.139c0.085,0,0.221-0.014,0.405-0.037v1.504c-0.29,0.111-0.572,0.166-0.849,0.166
			C113.529,231.286,112.821,230.753,112.563,229.681z M112.249,227.438c0.455,0,0.777-0.053,0.964-0.152
			c0.188-0.102,0.281-0.277,0.281-0.523c0-0.209-0.077-0.361-0.231-0.457c-0.153-0.094-0.396-0.143-0.729-0.143h-0.637v1.275
			H112.249z"/>
		<path fill="#FFFFFF" d="M117.215,226.192h-1.321v-1.404h4.792v1.404h-1.319v4.947h-2.151V226.192z"/>
	</g>
</g>
<g opacity="0.7">
	<path fill="#800000018000000180000001" d="M129.741,140.762l0.305-1.357c0.485,0.197,0.938,0.295,1.357,0.295
		c0.504,0,0.757-0.188,0.757-0.563c0-0.265-0.129-0.452-0.387-0.563c-0.259-0.111-0.69-0.167-1.292-0.167v-1.144
		c0.547,0,0.958-0.056,1.232-0.166c0.273-0.111,0.411-0.268,0.411-0.471c0-0.277-0.238-0.416-0.711-0.416
		c-0.449,0-0.914,0.104-1.394,0.314l-0.359-1.255c0.676-0.333,1.387-0.499,2.132-0.499c0.567,0,1.026,0.135,1.381,0.406
		c0.353,0.271,0.531,0.64,0.531,1.107c0,0.302-0.078,0.576-0.236,0.822c-0.156,0.247-0.368,0.443-0.632,0.591
		c0.352,0.16,0.629,0.378,0.835,0.656c0.207,0.276,0.31,0.584,0.31,0.923c0,0.375-0.099,0.701-0.301,0.978
		c-0.2,0.277-0.479,0.49-0.84,0.642c-0.359,0.151-0.773,0.226-1.241,0.226C130.926,141.122,130.307,141.001,129.741,140.762z"/>
	<path fill="#800000018000000180000001" d="M135.913,140.721c-0.416-0.244-0.738-0.59-0.966-1.039
		c-0.227-0.45-0.341-0.976-0.341-1.579c0-0.64,0.125-1.214,0.374-1.722s0.595-0.906,1.038-1.195
		c0.443-0.289,0.948-0.434,1.515-0.434c0.688,0,1.348,0.207,1.976,0.619l-0.435,1.209c-0.24-0.135-0.466-0.235-0.679-0.3
		c-0.211-0.064-0.428-0.097-0.65-0.097c-0.4,0-0.706,0.129-0.918,0.387c-0.213,0.259-0.344,0.668-0.392,1.228
		c0.165-0.208,0.38-0.369,0.642-0.479c0.261-0.111,0.551-0.167,0.871-0.167c0.561,0,1.008,0.171,1.343,0.513
		c0.335,0.342,0.503,0.795,0.503,1.362c0,0.375-0.108,0.72-0.323,1.033c-0.215,0.314-0.51,0.563-0.882,0.748
		s-0.78,0.277-1.223,0.277C136.813,141.085,136.328,140.963,135.913,140.721z M137.883,139.557c0.135-0.138,0.203-0.315,0.203-0.53
		c0-0.209-0.074-0.374-0.221-0.494c-0.147-0.12-0.354-0.18-0.619-0.18c-0.252,0-0.511,0.055-0.775,0.166
		c0.012,0.406,0.096,0.715,0.249,0.928c0.153,0.213,0.367,0.318,0.637,0.318C137.572,139.765,137.748,139.696,137.883,139.557z"/>
	<path fill="#800000018000000180000001" d="M141.783,140.683c-0.44-0.273-0.784-0.652-1.034-1.135
		c-0.25-0.483-0.374-1.032-0.374-1.647c0-0.609,0.125-1.156,0.374-1.639s0.594-0.862,1.034-1.136
		c0.44-0.273,0.938-0.411,1.491-0.411c0.548,0,1.041,0.138,1.481,0.411c0.44,0.274,0.786,0.654,1.034,1.14
		c0.25,0.486,0.374,1.031,0.374,1.634c0,0.609-0.123,1.157-0.368,1.643c-0.247,0.486-0.59,0.866-1.031,1.14
		c-0.438,0.274-0.936,0.411-1.49,0.411C142.721,141.094,142.224,140.958,141.783,140.683z M143.777,139.345
		c0.15-0.145,0.269-0.343,0.356-0.596c0.085-0.252,0.129-0.536,0.129-0.849c0-0.486-0.093-0.884-0.278-1.191
		c-0.185-0.308-0.42-0.462-0.71-0.462c-0.302,0-0.542,0.152-0.724,0.457c-0.182,0.305-0.272,0.703-0.272,1.196
		c0,0.486,0.093,0.884,0.281,1.195s0.427,0.466,0.715,0.466C143.458,139.562,143.627,139.49,143.777,139.345z"/>
	<path fill="#800000018000000180000001" d="M148.794,134.669h2.761c0.665,0,1.254,0.132,1.768,0.397
		c0.514,0.265,0.914,0.634,1.199,1.108c0.287,0.474,0.43,1.015,0.43,1.624c0,0.641-0.14,1.204-0.42,1.689
		c-0.28,0.486-0.677,0.863-1.191,1.131c-0.514,0.269-1.108,0.402-1.785,0.402h-2.761V134.669z M151.463,139.359
		c0.461,0,0.813-0.146,1.056-0.439c0.243-0.292,0.365-0.671,0.365-1.14c0-0.443-0.118-0.795-0.356-1.057
		c-0.236-0.262-0.592-0.392-1.064-0.392h-0.629v3.027H151.463z"/>
	<path fill="#800000018000000180000001" d="M155.847,134.669h4.459v1.403h-2.216v1.154h2.022v1.163h-2.022v1.228h2.216v1.403h-4.459
		V134.669z"/>
	<path fill="#800000018000000180000001" d="M162.612,140.721c-0.497-0.299-0.888-0.706-1.172-1.224
		c-0.282-0.517-0.424-1.086-0.424-1.708c0-0.597,0.143-1.145,0.429-1.643c0.286-0.499,0.685-0.893,1.195-1.182
		s1.093-0.434,1.744-0.434c0.358,0,0.703,0.04,1.039,0.12c0.336,0.081,0.638,0.194,0.91,0.342l-0.61,1.431
		c-0.419-0.173-0.81-0.258-1.172-0.258c-0.475,0-0.84,0.151-1.098,0.457c-0.259,0.304-0.388,0.703-0.388,1.195
		c0,0.32,0.057,0.608,0.174,0.863s0.282,0.457,0.494,0.604c0.212,0.147,0.454,0.222,0.725,0.222c0.148,0,0.271-0.014,0.369-0.037
		v-1.487l1.598-0.185v2.891c-0.696,0.319-1.406,0.479-2.132,0.479C163.672,141.168,163.111,141.019,162.612,140.721z"/>
	<path fill="#800000018000000180000001" d="M170.109,139.562l-0.231-0.951h-0.434v2.41h-2.021v-6.352h2.797
		c0.528,0,0.996,0.078,1.398,0.235c0.402,0.157,0.715,0.377,0.938,0.66c0.221,0.283,0.332,0.609,0.332,0.979
		c0,0.412-0.101,0.758-0.301,1.039c-0.199,0.28-0.509,0.509-0.927,0.688c0.042,0.234,0.092,0.446,0.147,0.637
		c0.073,0.233,0.176,0.396,0.305,0.489s0.317,0.139,0.563,0.139c0.086,0,0.221-0.013,0.406-0.037v1.504
		c-0.29,0.111-0.573,0.167-0.85,0.167C171.076,141.168,170.368,140.633,170.109,139.562z M169.796,137.319
		c0.455,0,0.776-0.051,0.964-0.153c0.188-0.101,0.281-0.275,0.281-0.522c0-0.209-0.076-0.361-0.231-0.457
		c-0.153-0.096-0.396-0.143-0.729-0.143h-0.637v1.274H169.796z"/>
	<path fill="#800000018000000180000001" d="M173.866,134.669h4.459v1.403h-2.216v1.154h2.022v1.163h-2.022v1.228h2.216v1.403h-4.459
		V134.669z"/>
	<path fill="#800000018000000180000001" d="M179.359,134.669h4.457v1.403h-2.214v1.154h2.021v1.163h-2.021v1.228h2.214v1.403h-4.457
		V134.669z"/>
	<path fill="#800000018000000180000001" d="M116.337,154.056c-0.326-0.012-0.772-0.039-1.339-0.082v-6.361h3.176
		c0.449,0,0.854,0.064,1.214,0.189c0.359,0.127,0.642,0.307,0.845,0.541c0.203,0.232,0.305,0.504,0.305,0.813
		c0,0.381-0.084,0.68-0.25,0.898c-0.167,0.219-0.419,0.371-0.757,0.457c0.861,0.137,1.292,0.643,1.292,1.523
		c0,0.609-0.278,1.102-0.835,1.477c-0.558,0.377-1.42,0.563-2.589,0.563C117.018,154.073,116.663,154.067,116.337,154.056z
		 M118.529,152.437c0.182-0.127,0.272-0.303,0.272-0.531c0-0.246-0.083-0.436-0.248-0.568c-0.167-0.131-0.404-0.197-0.712-0.197
		h-0.793v1.457c0.276,0.02,0.511,0.029,0.702,0.029C118.087,152.626,118.348,152.562,118.529,152.437z M117.787,150.124
		c0.239,0,0.437-0.059,0.595-0.176c0.156-0.117,0.236-0.268,0.236-0.451c0-0.438-0.272-0.656-0.813-0.656h-0.748v1.283H117.787z"/>
	<path fill="#800000018000000180000001" d="M121.654,147.612h2.132v6.352h-2.132V147.612z"/>
	<path fill="#800000018000000180000001" d="M124.987,147.612h2.76c0.664,0,1.253,0.133,1.767,0.396
		c0.514,0.266,0.914,0.635,1.2,1.109c0.286,0.473,0.43,1.014,0.43,1.623c0,0.641-0.141,1.203-0.42,1.689
		c-0.28,0.486-0.678,0.863-1.19,1.131c-0.516,0.268-1.11,0.402-1.787,0.402h-2.76V147.612z M127.654,152.302
		c0.461,0,0.814-0.145,1.058-0.438c0.242-0.293,0.363-0.672,0.363-1.141c0-0.443-0.119-0.795-0.354-1.057
		c-0.237-0.262-0.592-0.393-1.067-0.393h-0.628v3.027H127.654z"/>
	<path fill="#800000018000000180000001" d="M133.766,147.612h1.92l1.587,3.084l1.552-3.084h1.919v6.352h-1.919v-3.389l-1.173,2.217
		h-0.784l-1.181-2.217v3.389h-1.92V147.612z"/>
	<path fill="#800000018000000180000001" d="M143.154,147.612h2.807l1.837,6.352h-2.17l-0.24-1.219h-1.642l-0.269,1.219H141.4
		L143.154,147.612z M145.167,151.61l-0.601-2.779l-0.626,2.779H145.167z"/>
	<path fill="#800000018000000180000001" d="M148.406,147.612h1.855l2.53,3.426v-3.426h1.651v6.352h-1.847l-2.547-3.305v3.305h-1.644
		V147.612z"/>
	<path fill="#800000018000000180000001" d="M156.844,147.612h2.807l1.837,6.352h-2.17l-0.239-1.219h-1.644l-0.267,1.219h-2.078
		L156.844,147.612z M158.855,151.61l-0.6-2.779l-0.627,2.779H158.855z"/>
	<path fill="#800000018000000180000001" d="M163.369,153.663c-0.497-0.299-0.888-0.705-1.172-1.223
		c-0.282-0.518-0.424-1.086-0.424-1.707c0-0.598,0.144-1.146,0.429-1.645c0.287-0.498,0.685-0.893,1.196-1.182
		c0.511-0.289,1.092-0.434,1.744-0.434c0.357,0,0.703,0.041,1.038,0.121c0.337,0.08,0.639,0.193,0.91,0.342l-0.609,1.43
		c-0.42-0.172-0.811-0.258-1.172-0.258c-0.476,0-0.84,0.152-1.099,0.457s-0.388,0.703-0.388,1.195c0,0.32,0.057,0.607,0.174,0.863
		c0.118,0.256,0.283,0.457,0.495,0.604c0.212,0.148,0.453,0.223,0.724,0.223c0.149,0,0.271-0.014,0.37-0.037v-1.486l1.597-0.186
		v2.891c-0.695,0.32-1.406,0.48-2.132,0.48C164.429,154.112,163.868,153.962,163.369,153.663z"/>
	<path fill="#800000018000000180000001" d="M168.179,147.612h4.46v1.404h-2.217v1.154h2.022v1.162h-2.022v1.227h2.217v1.404h-4.46
		V147.612z"/>
	<path fill="#800000018000000180000001" d="M173.672,147.612h1.92l1.589,3.084l1.55-3.084h1.921v6.352h-1.921v-3.389l-1.172,2.217
		h-0.785l-1.182-2.217v3.389h-1.92V147.612z"/>
	<path fill="#800000018000000180000001" d="M181.86,147.612h4.458v1.404h-2.215v1.154h2.021v1.162h-2.021v1.227h2.215v1.404h-4.458
		V147.612z"/>
	<path fill="#800000018000000180000001" d="M187.353,147.612h1.855l2.53,3.426v-3.426h1.65v6.352h-1.846l-2.547-3.305v3.305h-1.644
		V147.612z"/>
	<path fill="#800000018000000180000001" d="M195.578,149.017h-1.32v-1.404h4.791v1.404h-1.32v4.947h-2.15V149.017z"/>
</g>
</svg>
